# xmcd
#
# Track frame offsets:
#	150
#	10699
#	25360
#	42227
#	59870
#	72546
#	90277
#	107145
#	126035
#	140808
#	160924
#	176358
#	185355
#	200171
#	222594
#
# Disc length: 3210 seconds
#
# Revision: 0
# Processed by: cddbd v1.5.2PL0 Copyright (c) Steve Scherf et al.
# Submitted via: EasyCDDAExtractor 12.0.4.1
#
DISCID=e10c880f
DTITLE=Les Country Girls - Parties pour la gloire
DYEAR=2014
DGENRE=Country
TTITLE0=Sur la route encore (On The Road Again)
TTITLE1=Complainte pour Sainte-Catherine
TTITLE2=Le train qui siffle
TTITLE3=Comme la lune sur une mer troublée (Bridge Over Troubled Water)
TTITLE4=Cowgirls dorées
TTITLE5=Cap enragé
TTITLE6=Tennessee (In My Tennessee Mountain Home)
TTITLE7=Danny
TTITLE8=Caroline
TTITLE9=Y'a que l'amour (qui brise un coeur) (Only Love Can Break Your Heart)
TTITLE10=Le coeur est un oiseau
TTITLE11=Marie-Élaine
TTITLE12=She's Got You
TTITLE13=Je te gardais dans mon coeur (Always On My Mind)
TTITLE14=Partir pour la gloire (Bound For Glory)
EXTD=
EXTT0=
EXTT1=
EXTT2=
EXTT3=
EXTT4=
EXTT5=
EXTT6=
EXTT7=
EXTT8=
EXTT9=
EXTT10=
EXTT11=
EXTT12=
EXTT13=
EXTT14=
PLAYORDER=
